<svg width="28" height="28" viewBox="0 0 28 28" fill="none" xmlns="http://www.w3.org/2000/svg">
<path d="M23.3327 9.62516V21.0002C23.3327 24.5002 21.2444 25.6668 18.666 25.6668H9.33268C6.75435 25.6668 4.66602 24.5002 4.66602 21.0002V9.62516C4.66602 5.8335 6.75435 4.9585 9.33268 4.9585C9.33268 5.68183 9.62432 6.33516 10.1027 6.81349C10.581 7.29183 11.2343 7.5835 11.9577 7.5835H16.041C17.4877 7.5835 18.666 6.40516 18.666 4.9585C21.2444 4.9585 23.3327 5.8335 23.3327 9.62516Z" stroke="#0C0A1C" stroke-width="1.5" stroke-linecap="round" stroke-linejoin="round"/>
<path d="M18.6673 4.9585C18.6673 6.40516 17.489 7.5835 16.0423 7.5835H11.959C11.2357 7.5835 10.5823 7.29182 10.104 6.81349C9.62562 6.33516 9.33398 5.68183 9.33398 4.9585C9.33398 3.51183 10.5123 2.3335 11.959 2.3335H16.0423C16.7657 2.3335 17.419 2.62517 17.8973 3.1035C18.3757 3.58183 18.6673 4.23516 18.6673 4.9585Z" stroke="#0C0A1C" stroke-width="1.5" stroke-linecap="round" stroke-linejoin="round"/>
<path d="M9.33398 15.1665H14.0007" stroke="#0C0A1C" stroke-width="1.5" stroke-linecap="round" stroke-linejoin="round"/>
<path d="M9.33398 19.8335H18.6673" stroke="#0C0A1C" stroke-width="1.5" stroke-linecap="round" stroke-linejoin="round"/>
</svg>
