<svg width="30" height="30" viewBox="0 0 30 30" fill="none" xmlns="http://www.w3.org/2000/svg">
<path d="M12.4877 28.4373C12.2377 28.4373 12.0377 28.3873 11.8877 28.3248C11.3877 28.1373 10.5377 27.5248 10.5377 25.5873V17.5248H7.61272C5.93772 17.5248 5.33772 16.7373 5.12522 16.2748C4.91272 15.7998 4.72522 14.8373 5.82522 13.5748L15.2877 2.82479C16.5627 1.37479 17.6002 1.47479 18.1002 1.66229C18.6002 1.84979 19.4502 2.46229 19.4502 4.39979V12.4623H22.3752C24.0502 12.4623 24.6502 13.2498 24.8627 13.7123C25.0752 14.1873 25.2627 15.1498 24.1627 16.4123L14.7002 27.1623C13.8127 28.1748 13.0377 28.4373 12.4877 28.4373ZM17.4127 3.42479C17.3752 3.47479 17.1127 3.59979 16.7002 4.07479L7.23772 14.8248C6.88772 15.2248 6.83772 15.4748 6.83772 15.5248C6.86272 15.5373 7.08772 15.6623 7.61272 15.6623H11.4752C11.9877 15.6623 12.4127 16.0873 12.4127 16.5998V25.5998C12.4127 26.2248 12.5252 26.4998 12.5752 26.5748C12.6127 26.5248 12.8752 26.3998 13.2877 25.9248L22.7502 15.1748C23.1002 14.7748 23.1502 14.5248 23.1502 14.4748C23.1252 14.4623 22.9002 14.3373 22.3752 14.3373H18.5127C18.0002 14.3373 17.5752 13.9123 17.5752 13.3998V4.39979C17.5877 3.77479 17.4627 3.51229 17.4127 3.42479Z" fill="#292D32"/>
</svg>
