<svg width="26" height="26" viewBox="0 0 26 26" fill="none" xmlns="http://www.w3.org/2000/svg">
<path d="M18.416 9.75008C18.416 13.9426 14.776 17.3334 10.291 17.3334L9.28352 18.5467L8.68769 19.2618C8.17852 19.8684 7.20351 19.7384 6.86768 19.0126L5.41602 15.8167C3.44435 14.4301 2.16602 12.2309 2.16602 9.75008C2.16602 5.55758 5.80602 2.16675 10.291 2.16675C13.5627 2.16675 16.3902 3.97592 17.6577 6.57592C18.1452 7.54009 18.416 8.61258 18.416 9.75008Z" stroke="#555461" stroke-width="1.5" stroke-linecap="round" stroke-linejoin="round"/>
<path d="M23.8324 13.9317C23.8324 16.4126 22.554 18.6118 20.5824 19.9984L19.1307 23.1942C18.7949 23.9201 17.8199 24.0609 17.3107 23.4434L15.7074 21.5151C13.0857 21.5151 10.7457 20.3559 9.2832 18.5467L10.2907 17.3334C14.7757 17.3334 18.4157 13.9426 18.4157 9.75009C18.4157 8.61259 18.1449 7.54009 17.6574 6.57593C21.1999 7.38843 23.8324 10.3784 23.8324 13.9317Z" stroke="#555461" stroke-width="1.5" stroke-linecap="round" stroke-linejoin="round"/>
<path d="M7.58398 9.75H13.0007" stroke="#555461" stroke-width="1.5" stroke-linecap="round" stroke-linejoin="round"/>
</svg>
