<svg width="20" height="20" viewBox="0 0 20 20" fill="none" xmlns="http://www.w3.org/2000/svg">
<path opacity="0.34" d="M10 12.5C11.3807 12.5 12.5 11.3807 12.5 10C12.5 8.61929 11.3807 7.5 10 7.5C8.61929 7.5 7.5 8.61929 7.5 10C7.5 11.3807 8.61929 12.5 10 12.5Z" stroke="white" stroke-width="1.5" stroke-miterlimit="10" stroke-linecap="round" stroke-linejoin="round"/>
<path d="M1.66797 10.7334V9.2667C1.66797 8.40003 2.3763 7.68336 3.2513 7.68336C4.75964 7.68336 5.3763 6.6167 4.61797 5.30836C4.18464 4.55836 4.44297 3.58336 5.2013 3.15003L6.64297 2.32503C7.3013 1.93336 8.1513 2.1667 8.54297 2.82503L8.63464 2.98336C9.38464 4.2917 10.618 4.2917 11.3763 2.98336L11.468 2.82503C11.8596 2.1667 12.7096 1.93336 13.368 2.32503L14.8096 3.15003C15.568 3.58336 15.8263 4.55836 15.393 5.30836C14.6346 6.6167 15.2513 7.68336 16.7596 7.68336C17.6263 7.68336 18.343 8.3917 18.343 9.2667V10.7334C18.343 11.6 17.6346 12.3167 16.7596 12.3167C15.2513 12.3167 14.6346 13.3834 15.393 14.6917C15.8263 15.45 15.568 16.4167 14.8096 16.85L13.368 17.675C12.7096 18.0667 11.8596 17.8334 11.468 17.175L11.3763 17.0167C10.6263 15.7084 9.39297 15.7084 8.63464 17.0167L8.54297 17.175C8.1513 17.8334 7.3013 18.0667 6.64297 17.675L5.2013 16.85C4.44297 16.4167 4.18464 15.4417 4.61797 14.6917C5.3763 13.3834 4.75964 12.3167 3.2513 12.3167C2.3763 12.3167 1.66797 11.6 1.66797 10.7334Z" stroke="white" stroke-width="1.5" stroke-miterlimit="10" stroke-linecap="round" stroke-linejoin="round"/>
</svg>
