<svg width="50" height="51" viewBox="0 0 50 51" fill="none" xmlns="http://www.w3.org/2000/svg">
<path d="M18.7513 37.4793C17.8971 37.4793 17.1888 36.771 17.1888 35.9168V27.1877L15.6888 28.6877C15.0846 29.2918 14.0846 29.2918 13.4805 28.6877C12.8763 28.0835 12.8763 27.0835 13.4805 26.4793L17.6471 22.3127C18.0846 21.8752 18.7721 21.7293 19.3555 21.9793C19.9388 22.2085 20.3138 22.7918 20.3138 23.4168V35.9168C20.3138 36.771 19.6055 37.4793 18.7513 37.4793Z" fill="#292D32"/>
<path d="M22.9173 29.1458C22.5215 29.1458 22.1257 29 21.8132 28.6875L17.6465 24.5208C17.0423 23.9167 17.0423 22.9167 17.6465 22.3125C18.2507 21.7083 19.2506 21.7083 19.8548 22.3125L24.0215 26.4792C24.6256 27.0833 24.6256 28.0833 24.0215 28.6875C23.709 29 23.3132 29.1458 22.9173 29.1458Z" fill="#292D32"/>
<path d="M31.2493 47.8962H18.7493C7.43685 47.8962 2.60352 43.0628 2.60352 31.7503V19.2503C2.60352 7.93783 7.43685 3.10449 18.7493 3.10449H29.166C30.0202 3.10449 30.7285 3.81283 30.7285 4.66699C30.7285 5.52116 30.0202 6.22949 29.166 6.22949H18.7493C9.14518 6.22949 5.72852 9.64616 5.72852 19.2503V31.7503C5.72852 41.3545 9.14518 44.7712 18.7493 44.7712H31.2493C40.8535 44.7712 44.2702 41.3545 44.2702 31.7503V21.3337C44.2702 20.4795 44.9785 19.7712 45.8327 19.7712C46.6868 19.7712 47.3952 20.4795 47.3952 21.3337V31.7503C47.3952 43.0628 42.5618 47.8962 31.2493 47.8962Z" fill="#292D32"/>
<path d="M45.8327 22.896H37.4993C30.3743 22.896 27.6035 20.1252 27.6035 13.0002V4.66685C27.6035 4.04185 27.9785 3.45851 28.5618 3.22935C29.1452 2.97935 29.8118 3.12518 30.2702 3.56268L46.9369 20.2293C47.3744 20.6668 47.5202 21.3543 47.2702 21.9377C47.0202 22.521 46.4577 22.896 45.8327 22.896ZM30.7285 8.43768V13.0002C30.7285 18.3752 32.1243 19.771 37.4993 19.771H42.0619L30.7285 8.43768Z" fill="#292D32"/>
</svg>
