<svg width="705" height="924" viewBox="0 0 705 924" fill="none" xmlns="http://www.w3.org/2000/svg">
<rect width="705" height="924" fill="#E8E4FF" fill-opacity="0.5"/>
<path d="M112.809 281.023C134.693 317.843 181.542 330.367 181.542 330.367C181.542 330.367 192.931 283.229 171.047 246.41C149.163 209.59 102.314 197.066 102.314 197.066C102.314 197.066 90.9253 244.204 112.809 281.023Z" fill="#C3BEFF"/>
<path d="M181.59 330.338L102.363 197.037" stroke="white" stroke-width="0.474317" stroke-miterlimit="10"/>
<path d="M130.527 244.42L105.717 239.879" stroke="white" stroke-width="0.474317" stroke-miterlimit="10"/>
<path d="M143.879 266.3L146.672 224.994" stroke="white" stroke-width="0.474317" stroke-miterlimit="10"/>
<path d="M151.169 279.152L114.277 271.963" stroke="white" stroke-width="0.474317" stroke-miterlimit="10"/>
<path d="M161.591 296.099L172.802 260.669" stroke="white" stroke-width="0.474317" stroke-miterlimit="10"/>
<path d="M170.369 310.869L142.922 307.194" stroke="white" stroke-width="0.474317" stroke-miterlimit="10"/>
<path d="M121.045 340.884C144.716 348.445 169.855 335.824 169.855 335.824C169.855 335.824 156.681 310.969 133.059 303.38C109.436 295.79 84.2484 308.44 84.2484 308.44C84.2484 308.44 97.3736 333.434 121.045 340.884Z" fill="#C3BEFF"/>
<path d="M169.894 335.889L84.2383 308.534" stroke="white" stroke-width="0.474317" stroke-miterlimit="10"/>
<path d="M114.691 318.26L102.179 325.828" stroke="white" stroke-width="0.474317" stroke-miterlimit="10"/>
<path d="M128.907 322.618L114.227 303.628" stroke="white" stroke-width="0.474317" stroke-miterlimit="10"/>
<path d="M137.004 325.378L118.242 336.464" stroke="white" stroke-width="0.474317" stroke-miterlimit="10"/>
<path d="M148.057 328.727L139.293 309.045" stroke="white" stroke-width="0.474317" stroke-miterlimit="10"/>
<path d="M157.543 331.757L144.221 340.726" stroke="white" stroke-width="0.474317" stroke-miterlimit="10"/>
<path d="M181.74 273.79C175.953 297.94 190.418 322.093 190.418 322.093C190.418 322.093 214.228 307.087 219.989 282.931C225.751 258.775 211.341 234.677 211.341 234.677C211.341 234.677 187.502 249.634 181.74 273.79Z" fill="#C3BEFF"/>
<path d="M190.417 322.092L211.311 234.629" stroke="white" stroke-width="0.474317" stroke-miterlimit="10"/>
<path d="M203.884 265.707L195.406 253.801" stroke="white" stroke-width="0.474317" stroke-miterlimit="10"/>
<path d="M200.594 280.207L218.447 264.167" stroke="white" stroke-width="0.474317" stroke-miterlimit="10"/>
<path d="M198.428 288.5L185.996 270.604" stroke="white" stroke-width="0.474317" stroke-miterlimit="10"/>
<path d="M195.932 299.769L214.9 289.546" stroke="white" stroke-width="0.474317" stroke-miterlimit="10"/>
<path d="M193.615 309.464L183.686 296.846" stroke="white" stroke-width="0.474317" stroke-miterlimit="10"/>
<path d="M605.467 422.279C592.664 463.153 549.966 486.143 549.966 486.143C549.966 486.143 528.014 442.903 540.816 402.029C553.619 361.155 596.317 338.165 596.317 338.165C596.317 338.165 618.27 381.406 605.467 422.279Z" fill="#C3BEFF"/>
<path d="M549.911 486.126L596.262 338.147" stroke="white" stroke-width="0.474317" stroke-miterlimit="10"/>
<path d="M579.787 390.748L602.881 380.608" stroke="white" stroke-width="0.474317" stroke-miterlimit="10"/>
<path d="M571.838 415.118L559.595 375.569" stroke="white" stroke-width="0.474317" stroke-miterlimit="10"/>
<path d="M567.71 429.305L601.949 413.802" stroke="white" stroke-width="0.474317" stroke-miterlimit="10"/>
<path d="M561.476 448.198L542.396 416.309" stroke="white" stroke-width="0.474317" stroke-miterlimit="10"/>
<path d="M556.339 464.594L582.199 454.689" stroke="white" stroke-width="0.474317" stroke-miterlimit="10"/>
<path d="M611.258 482.426C589.968 495.242 562.596 488.758 562.596 488.758C562.596 488.758 569.683 461.535 590.919 448.703C612.154 435.871 639.58 442.371 639.58 442.371C639.58 442.371 632.573 469.717 611.258 482.426Z" fill="#C3BEFF"/>
<path d="M562.573 488.83L639.611 442.46" stroke="white" stroke-width="0.474317" stroke-miterlimit="10"/>
<path d="M612.224 458.945L626.144 463.424" stroke="white" stroke-width="0.474317" stroke-miterlimit="10"/>
<path d="M599.396 466.465L609.301 444.601" stroke="white" stroke-width="0.474317" stroke-miterlimit="10"/>
<path d="M592.152 471.019L612.965 477.479" stroke="white" stroke-width="0.474317" stroke-miterlimit="10"/>
<path d="M582.169 476.825L586.158 455.652" stroke="white" stroke-width="0.474317" stroke-miterlimit="10"/>
<path d="M573.639 481.962L588.669 487.617" stroke="white" stroke-width="0.474317" stroke-miterlimit="10"/>
<path d="M536.728 431.137C547.928 453.301 539.423 480.139 539.423 480.139C539.423 480.139 512.795 471.029 501.618 448.853C490.441 426.677 498.905 399.905 498.905 399.905C498.905 399.905 525.551 408.961 536.728 431.137Z" fill="#C3BEFF"/>
<path d="M539.422 480.139L498.921 399.851" stroke="white" stroke-width="0.474317" stroke-miterlimit="10"/>
<path d="M513.315 428.379L518.818 414.839" stroke="white" stroke-width="0.474317" stroke-miterlimit="10"/>
<path d="M519.861 441.729L498.79 430.238" stroke="white" stroke-width="0.474317" stroke-miterlimit="10"/>
<path d="M523.88 449.298L531.85 429.018" stroke="white" stroke-width="0.474317" stroke-miterlimit="10"/>
<path d="M528.906 459.688L508.092 454.115" stroke="white" stroke-width="0.474317" stroke-miterlimit="10"/>
<path d="M533.396 468.589L540.148 454.02" stroke="white" stroke-width="0.474317" stroke-miterlimit="10"/>
<path opacity="0.1" d="M371.068 764.383C495.638 764.383 596.622 754.76 596.622 742.889C596.622 731.019 495.638 721.396 371.068 721.396C246.498 721.396 145.514 731.019 145.514 742.889C145.514 754.76 246.498 764.383 371.068 764.383Z" fill="#6D57FC"/>
<rect x="159.193" y="212.938" width="407.715" height="349.559" rx="14.9027" fill="white"/>
<rect x="177.863" y="259.512" width="172.328" height="172.328" rx="14.4846" fill="#E7E7E9"/>
<path d="M159.193 227.423C159.193 219.423 165.678 212.938 173.678 212.938H552.424C560.424 212.938 566.909 219.423 566.909 227.423V245.632H159.193V227.423Z" fill="#6D57FC"/>
<circle cx="177.887" cy="227.299" r="5.04308" fill="white"/>
<circle cx="193.016" cy="227.299" r="5.04308" fill="white"/>
<circle cx="208.145" cy="227.299" r="5.04308" fill="white"/>
<rect x="188.191" y="269.814" width="151.672" height="151.697" rx="14.9027" fill="white"/>
<rect opacity="0.2" x="202.57" y="289.749" width="37.6093" height="6.76568" rx="3.38284" fill="#6D57FC"/>
<line x1="204.703" y1="326.35" x2="317.305" y2="326.35" stroke="#E7E7E9" stroke-width="0.614775"/>
<line x1="204.703" y1="343.225" x2="317.305" y2="343.225" stroke="#E7E7E9" stroke-width="0.614775"/>
<line x1="204.703" y1="360.1" x2="317.305" y2="360.1" stroke="#E7E7E9" stroke-width="0.614775"/>
<line x1="204.703" y1="376.975" x2="317.305" y2="376.975" stroke="#E7E7E9" stroke-width="0.614775"/>
<line x1="204.703" y1="395.286" x2="317.305" y2="395.286" stroke="#E7E7E9" stroke-width="0.614775"/>
<circle opacity="0.2" cx="386.222" cy="277.581" r="17.9508" fill="#6D57FC"/>
<rect opacity="0.3" x="468.234" y="261.065" width="7.18034" height="58.316" rx="3.59017" transform="rotate(90 468.234 261.065)" fill="#6D57FC"/>
<rect x="548.238" y="273.99" width="7.18034" height="138.32" rx="3.59017" transform="rotate(90 548.238 273.99)" fill="#E7E7E9"/>
<rect x="548.238" y="286.915" width="7.18034" height="138.32" rx="3.59017" transform="rotate(90 548.238 286.915)" fill="#E7E7E9"/>
<circle opacity="0.2" cx="386.224" cy="336.46" r="17.9508" fill="#6D57FC"/>
<rect opacity="0.3" x="468.234" y="319.944" width="7.18034" height="58.316" rx="3.59017" transform="rotate(90 468.234 319.944)" fill="#6D57FC"/>
<rect x="548.238" y="332.869" width="7.18034" height="138.32" rx="3.59017" transform="rotate(90 548.238 332.869)" fill="#E7E7E9"/>
<rect x="548.238" y="345.794" width="7.18034" height="138.32" rx="3.59017" transform="rotate(90 548.238 345.794)" fill="#E7E7E9"/>
<circle opacity="0.2" cx="386.224" cy="395.338" r="17.9508" fill="#6D57FC"/>
<rect opacity="0.3" x="468.234" y="378.823" width="7.18034" height="58.316" rx="3.59017" transform="rotate(90 468.234 378.823)" fill="#6D57FC"/>
<rect x="548.238" y="391.748" width="7.18034" height="138.32" rx="3.59017" transform="rotate(90 548.238 391.748)" fill="#E7E7E9"/>
<rect x="548.238" y="404.673" width="7.18034" height="138.32" rx="3.59017" transform="rotate(90 548.238 404.673)" fill="#E7E7E9"/>
<rect x="177.863" y="450.508" width="370.378" height="93.3203" rx="10.9612" fill="#E7E7E9"/>
<rect x="188.621" y="461.259" width="348.862" height="71.8182" rx="11.2545" fill="white"/>
<path d="M312.159 518.768L312.365 519.232L312.853 519.096L338.926 511.839L338.989 511.821L339.046 511.791L364.924 497.956L390.871 504.772L391.091 504.83L391.292 504.724L417.66 490.938L443.224 490.883L468.3 504.924L468.303 504.925L468.546 505.063L468.825 505.221L469.108 505.072L493.917 492.082L494.558 491.746L494.097 491.188L493.614 490.604L493.311 490.237L492.889 490.457L468.862 503.035L444.059 489.15L444.059 489.15L444.055 489.148L443.94 489.085L443.808 489.013L443.657 489.013L417.25 489.069L417.107 489.069L416.979 489.135L390.818 502.813L364.868 495.99L364.645 495.931L364.442 496.04L338.198 510.085L312.249 517.31L311.594 517.492L311.869 518.114L312.159 518.768Z" fill="#B0A4FD" stroke="#B0A4FD" stroke-width="1.17442"/>
<path d="M468.066 511.608C468.326 511.748 468.649 511.674 468.822 511.434L494.306 475.936C494.409 475.793 494.442 475.611 494.396 475.441C494.35 475.27 494.23 475.13 494.069 475.058L493.305 474.717C493.051 474.603 492.751 474.684 492.589 474.91L467.879 509.328L443.279 496.082C443.193 496.036 443.097 496.012 443 496.012H416.747L390.468 482.261C390.385 482.217 390.293 482.195 390.2 482.194L363.96 482.006C363.825 482.005 363.694 482.051 363.589 482.135L337.58 503.004H312.223C311.898 503.004 311.635 503.267 311.635 503.591V504.287C311.635 504.611 311.898 504.874 312.223 504.874H338.155C338.289 504.874 338.418 504.829 338.523 504.745L364.521 483.885L389.777 484.063L416.067 497.815C416.151 497.859 416.244 497.882 416.339 497.882H442.589L468.066 511.608Z" fill="#6D57FC" stroke="#6D57FC" stroke-width="1.17442" stroke-linejoin="round"/>
<rect opacity="0.2" x="207.979" y="476.52" width="37.6093" height="6.76568" rx="3.38284" fill="#6D57FC"/>
<rect x="207.979" y="491.901" width="10.0858" height="10.0858" rx="5.04291" fill="#6D57FC"/>
<rect x="283.049" y="493.354" width="7.18034" height="60.9174" rx="3.59017" transform="rotate(90 283.049 493.354)" fill="#E7E7E9"/>
<rect x="207.979" y="507.731" width="10.0858" height="10.0858" rx="5.04291" fill="#B0A4FD"/>
<rect x="283.047" y="509.185" width="7.18034" height="60.9174" rx="3.59017" transform="rotate(90 283.047 509.185)" fill="#E7E7E9"/>
<path d="M551.231 736.166C553.346 733.407 556.326 729.4 559.648 724.467C560.634 723.038 561.661 721.507 562.648 719.937C559.99 718.057 557.628 715.791 555.641 713.212C554.877 712.014 554.381 710.665 554.186 709.258C553.991 707.85 554.103 706.418 554.513 705.057C554.978 703.919 555.874 703.012 557.006 702.533C558.138 702.053 559.413 702.042 560.554 702.5L560.997 702.701C564.42 704.715 565.024 711.762 564.319 715.225C564.319 715.447 563.433 718.004 562.97 719.252L564.802 716.353C565.708 714.903 566.614 713.353 567.5 711.863L568.789 709.467C569.252 708.661 569.594 707.836 569.997 706.99C570.581 705.782 571.105 704.473 571.648 703.205C568.887 701.812 566.354 700.006 564.138 697.849C563.197 696.778 562.499 695.517 562.092 694.151C561.686 692.785 561.58 691.347 561.782 689.936C562.082 688.724 562.851 687.681 563.919 687.036C564.987 686.39 566.268 686.195 567.48 686.493L567.823 686.594C571.527 688.023 573.219 694.95 573.017 698.493C573.017 698.493 572.897 699.339 572.756 700.225C573.239 698.956 573.722 697.688 574.165 696.379C575.434 692.674 576.601 688.849 577.809 685.023C578.051 684.238 578.313 683.453 578.554 682.647C575.72 681.215 573.114 679.369 570.823 677.17C569.882 676.104 569.184 674.845 568.778 673.483C568.371 672.12 568.265 670.685 568.467 669.278C568.611 668.679 568.872 668.115 569.234 667.618C569.597 667.121 570.054 666.7 570.58 666.38C571.106 666.06 571.69 665.847 572.298 665.754C572.906 665.66 573.527 665.687 574.125 665.834L574.507 665.935C578.212 667.345 579.903 674.291 579.702 677.815C579.702 677.936 579.561 678.822 579.38 679.828C580.065 677.815 580.769 675.801 581.534 673.788C582.817 670.334 584.331 666.971 586.065 663.72C583.11 662.269 580.394 660.374 578.011 658.103C577.07 657.036 576.373 655.778 575.966 654.415C575.559 653.052 575.453 651.618 575.655 650.21C575.799 649.611 576.06 649.047 576.423 648.55C576.785 648.053 577.243 647.632 577.768 647.312C578.294 646.992 578.878 646.779 579.486 646.686C580.095 646.592 580.715 646.62 581.313 646.767H581.696C585.4 648.196 587.092 655.123 586.89 658.646C586.89 658.908 586.347 662.089 586.105 663.237V663.116C587.881 659.954 589.943 656.961 592.266 654.176C594.311 651.666 596.503 649.279 598.83 647.028C600.985 645.015 603.059 643.122 604.871 641.552C605.878 640.706 606.824 639.941 607.71 639.256C607.71 639.256 609.884 634.988 610.066 634.746C612.079 631.827 617.656 627.397 621.442 628.525C622.038 628.72 622.589 629.032 623.063 629.443C623.537 629.854 623.925 630.355 624.202 630.918C624.48 631.481 624.642 632.093 624.68 632.719C624.718 633.346 624.63 633.973 624.422 634.565L624.241 635.008C623.543 636.248 622.584 637.321 621.429 638.152C620.275 638.983 618.953 639.552 617.556 639.82C614.379 640.17 611.168 640.034 608.032 639.418C607.106 640.142 606.159 640.948 605.112 641.854C603.28 643.465 601.247 645.317 599.072 647.451C598.508 648.035 597.924 648.659 597.36 649.284C598.311 648.561 599.299 647.889 600.32 647.27C603.441 645.619 610.388 644.25 613.287 647.008C613.723 647.441 614.069 647.955 614.305 648.522C614.541 649.089 614.663 649.697 614.663 650.31C614.663 650.924 614.541 651.532 614.305 652.099C614.069 652.666 613.723 653.18 613.287 653.613C613.169 653.737 613.041 653.852 612.905 653.955C611.713 654.733 610.366 655.242 608.958 655.447C607.55 655.652 606.114 655.548 604.75 655.143C601.757 653.976 598.96 652.361 596.454 650.351C595.206 651.72 593.978 653.15 592.77 654.72C590.534 657.521 588.56 660.52 586.87 663.68C586.825 663.885 586.736 664.077 586.608 664.244C587.112 663.74 590.112 661.163 590.333 661.002C593.253 658.989 600.079 656.874 603.2 659.311C604.157 660.094 604.764 661.225 604.889 662.455C605.013 663.686 604.645 664.916 603.864 665.875L603.502 666.277C602.387 667.181 601.089 667.829 599.698 668.177C598.306 668.524 596.856 668.563 595.448 668.291C592.257 667.44 589.225 666.08 586.467 664.264C584.874 667.453 583.489 670.742 582.32 674.11C581.434 676.607 580.649 679.164 579.863 681.741C580.548 681.097 583.326 678.701 583.548 678.56C586.467 676.546 593.273 674.432 596.414 676.848C597.371 677.642 597.975 678.781 598.096 680.018C598.217 681.255 597.844 682.489 597.058 683.453L596.716 683.815C595.604 684.722 594.306 685.372 592.914 685.72C591.522 686.068 590.07 686.105 588.662 685.828C585.5 684.981 582.485 683.658 579.722 681.902L578.695 685.406C577.588 689.251 576.481 693.097 575.293 696.862C574.87 698.171 574.407 699.44 573.964 700.728C575.011 699.782 576.944 698.131 577.125 697.99C580.044 695.976 586.85 693.963 589.991 696.299C590.949 697.102 591.55 698.251 591.663 699.496C591.777 700.741 591.393 701.98 590.595 702.943L590.293 703.265C589.181 704.172 587.883 704.822 586.491 705.17C585.099 705.518 583.647 705.555 582.239 705.279C579.184 704.473 576.271 703.204 573.601 701.514C572.836 703.527 572.031 705.722 571.145 707.735C570.742 708.581 570.38 709.487 569.937 710.292L568.688 712.729C567.782 714.36 566.937 715.87 566.051 717.36C565.608 718.125 565.165 718.83 564.742 719.575C565.648 718.467 567.138 716.736 567.279 716.595C569.876 714.178 576.279 711.037 579.742 712.97C580.27 713.284 580.731 713.698 581.098 714.189C581.466 714.68 581.733 715.239 581.884 715.834C582.036 716.429 582.069 717.047 581.981 717.654C581.893 718.262 581.687 718.846 581.373 719.373C581.373 719.514 581.192 719.655 581.091 719.796C580.144 720.859 578.975 721.701 577.667 722.265C576.359 722.828 574.944 723.099 573.521 723.058C570.286 722.688 567.124 721.84 564.138 720.541C563.051 722.333 561.983 724.065 560.957 725.655C557.675 730.729 554.775 734.817 552.701 737.736C550.627 740.656 549.359 742.166 549.359 742.166C549.252 742.326 549.112 742.461 548.949 742.562C548.785 742.664 548.602 742.729 548.411 742.754C548.221 742.778 548.027 742.762 547.843 742.706C547.659 742.65 547.49 742.555 547.345 742.428C547.195 742.313 547.068 742.17 546.974 742.006C546.88 741.842 546.82 741.66 546.797 741.472C546.775 741.284 546.79 741.094 546.843 740.912C546.895 740.73 546.984 740.561 547.104 740.414C548.676 739.203 550.066 737.772 551.231 736.166Z" fill="#6D57FC"/>
<path d="M596.876 649.465C596.876 649.465 591.762 644.733 590.574 641.874C589.953 640.595 589.616 639.198 589.584 637.776C589.553 636.355 589.829 634.944 590.392 633.639C590.988 632.547 591.993 631.737 593.186 631.386C594.379 631.035 595.663 631.172 596.755 631.767L597.178 632.028C600.379 634.364 600.178 641.512 599.05 644.854C598.95 645.156 596.916 649.505 596.876 649.465Z" fill="#6D57FC"/>
<path d="M545.715 738.058C544.769 735.682 543.38 732.3 541.527 728.333C541.004 727.186 540.42 725.977 539.816 724.729C537.629 725.701 535.307 726.332 532.93 726.602C531.883 726.632 530.843 726.435 529.881 726.025C528.918 725.615 528.055 725.001 527.352 724.226C526.803 723.495 526.565 722.578 526.689 721.673C526.814 720.768 527.291 719.948 528.017 719.393L528.339 719.192C530.876 717.783 535.587 720.078 537.5 721.83C537.621 721.95 538.91 723.44 539.514 724.226C539.131 723.481 538.769 722.736 538.366 721.971C537.802 720.863 537.178 719.716 536.554 718.588C536.232 718.004 535.889 717.44 535.547 716.856C535.205 716.272 534.822 715.729 534.44 715.165C534.057 714.601 533.272 713.514 532.668 712.688C530.749 713.897 528.658 714.806 526.466 715.386C525.435 715.577 524.375 715.541 523.36 715.28C522.344 715.02 521.398 714.54 520.587 713.876C520.267 713.557 520.013 713.177 519.839 712.759C519.666 712.341 519.577 711.893 519.577 711.44C519.577 710.988 519.666 710.539 519.839 710.121C520.013 709.703 520.267 709.324 520.587 709.004L520.768 708.742C523.063 706.95 528.077 708.5 530.211 709.97L531.198 710.796C530.594 710.017 529.97 709.232 529.325 708.44C527.453 706.245 525.5 704.051 523.547 701.856L522.339 700.487C520.364 701.736 518.212 702.68 515.956 703.285C514.928 703.476 513.871 703.44 512.859 703.179C511.847 702.918 510.904 702.439 510.097 701.775C509.776 701.456 509.522 701.076 509.349 700.658C509.176 700.24 509.086 699.792 509.086 699.339C509.086 698.886 509.176 698.438 509.349 698.02C509.522 697.602 509.776 697.222 510.097 696.903L510.358 696.661C512.654 694.869 517.667 696.419 519.822 697.869L520.949 698.836C519.902 697.627 518.936 696.419 517.909 695.171C516.2 693.057 514.646 690.823 513.258 688.486C511.227 689.799 509.006 690.79 506.674 691.426C505.646 691.617 504.589 691.58 503.577 691.319C502.565 691.059 501.622 690.58 500.814 689.916C500.173 689.267 499.812 688.392 499.812 687.48C499.812 686.567 500.173 685.692 500.814 685.043L501.076 684.802C503.351 683.01 508.365 684.56 510.519 686.01C510.68 686.13 512.533 687.681 513.117 688.245C511.805 685.93 510.7 683.505 509.815 680.996C509.013 678.755 508.34 676.469 507.801 674.15C507.278 671.996 506.935 670.002 506.654 668.231C506.492 667.264 506.392 666.398 506.271 665.573C506.271 665.573 504.419 662.593 504.257 662.391C503.17 660.016 502.486 654.821 504.64 652.868C505.326 652.274 506.218 651.975 507.122 652.035C508.027 652.096 508.872 652.511 509.472 653.19L509.714 653.512C510.231 654.422 510.545 655.434 510.631 656.477C510.718 657.52 510.577 658.569 510.217 659.552C509.239 661.687 507.935 663.657 506.351 665.392C506.472 666.257 506.613 667.163 506.794 668.15C507.117 669.922 507.499 671.895 508.083 674.029C508.224 674.593 508.405 675.197 508.566 675.781C508.566 674.734 508.405 673.284 508.425 673.144C508.566 670.566 510.439 665.633 513.157 664.888C514.038 664.676 514.967 664.821 515.741 665.293C516.515 665.765 517.07 666.525 517.285 667.405C517.294 667.539 517.294 667.674 517.285 667.808C517.323 668.853 517.132 669.894 516.725 670.857C516.318 671.821 515.705 672.684 514.929 673.385C513.103 674.829 511.065 675.983 508.888 676.808C509.271 678.097 509.714 679.426 510.238 680.835C511.161 683.303 512.307 685.682 513.66 687.943L513.922 688.325C513.781 687.822 513.298 684.963 513.278 684.741C513.137 682.164 514.365 677.05 517.083 676.003C517.93 675.69 518.866 675.727 519.685 676.105C520.504 676.482 521.14 677.17 521.453 678.016C521.505 678.14 521.545 678.268 521.573 678.399C521.733 679.432 521.663 680.487 521.367 681.49C521.071 682.492 520.557 683.417 519.862 684.198C518.117 685.862 516.136 687.26 513.983 688.345C515.385 690.566 516.932 692.691 518.614 694.708C519.842 696.198 521.171 697.668 522.5 699.138C522.339 698.453 521.875 695.795 521.875 695.594C521.714 693.017 522.963 687.902 525.681 686.855C526.527 686.543 527.463 686.58 528.282 686.958C529.102 687.335 529.738 688.023 530.05 688.869C530.102 688.992 530.143 689.12 530.171 689.251C530.331 690.284 530.261 691.34 529.965 692.343C529.669 693.345 529.155 694.27 528.46 695.05C526.726 696.719 524.751 698.118 522.6 699.198L524.433 701.212C526.446 703.366 528.46 705.52 530.352 707.695C531.017 708.46 531.641 709.225 532.366 709.99C532.164 708.984 531.862 707.131 531.842 706.97C531.701 704.373 532.93 699.279 535.648 698.232C536.494 697.919 537.43 697.956 538.249 698.334C539.069 698.711 539.704 699.399 540.017 700.245C540.073 700.367 540.113 700.496 540.138 700.628C540.298 701.661 540.227 702.716 539.931 703.719C539.636 704.721 539.122 705.646 538.426 706.426C536.768 708.054 534.866 709.413 532.789 710.453C533.836 711.742 534.802 713.031 535.769 714.36C536.151 714.944 536.594 715.507 536.936 716.091C537.279 716.675 537.641 717.239 537.983 717.803C538.668 718.991 539.312 720.098 539.997 721.206C540.299 721.789 540.581 722.333 540.883 722.877C540.541 721.89 539.997 720.299 539.977 720.138C539.433 717.601 539.876 712.386 542.413 710.937C542.831 710.758 543.279 710.663 543.734 710.659C544.188 710.654 544.639 710.739 545.06 710.91C545.481 711.08 545.864 711.332 546.187 711.651C546.511 711.97 546.768 712.35 546.943 712.769C547.261 713.774 547.352 714.837 547.209 715.882C547.066 716.926 546.694 717.926 546.118 718.809C544.665 720.702 542.942 722.371 541.004 723.763C541.708 725.112 542.393 726.441 543.017 727.79C545.031 731.817 546.46 735.139 547.467 737.535C548.474 739.931 548.977 741.32 548.977 741.32C549.062 741.577 549.045 741.856 548.928 742.1C548.812 742.344 548.606 742.534 548.353 742.629C548.225 742.673 548.089 742.692 547.954 742.683C547.818 742.675 547.686 742.64 547.564 742.58C547.443 742.52 547.334 742.436 547.245 742.334C547.155 742.232 547.087 742.113 547.044 741.985C546.679 740.651 546.235 739.34 545.715 738.058Z" fill="#6D57FC"/>
<path d="M508.364 676.526C506.042 677.24 503.626 677.607 501.196 677.614C500.156 677.52 499.148 677.204 498.242 676.687C497.335 676.169 496.55 675.462 495.941 674.614C495.477 673.828 495.344 672.891 495.571 672.008C495.797 671.125 496.365 670.367 497.149 669.902L497.491 669.721C500.19 668.593 504.599 671.432 506.29 673.406C506.431 673.546 508.405 676.526 508.364 676.526Z" fill="#6D57FC"/>
<path d="M548.533 735.26C548.976 731.817 549.539 726.864 549.922 720.904C550.043 719.192 550.143 717.38 550.224 715.508C546.987 715.212 543.811 714.438 540.801 713.212C539.532 712.568 538.421 711.654 537.544 710.534C536.667 709.414 536.047 708.115 535.727 706.729C535.642 706.115 535.678 705.491 535.835 704.892C535.991 704.292 536.264 703.73 536.638 703.236C537.012 702.742 537.48 702.327 538.014 702.014C538.549 701.702 539.14 701.497 539.754 701.413H540.257C544.284 701.413 548.311 707.212 549.439 710.575C549.439 710.776 550.063 713.414 550.325 714.763C550.305 713.62 550.346 712.478 550.445 711.34V703.286C550.445 702.36 550.304 701.474 550.244 700.547C550.123 699.198 549.942 697.829 549.761 696.52C546.675 696.703 543.58 696.418 540.579 695.675C539.223 695.224 537.981 694.485 536.938 693.508C535.896 692.532 535.077 691.34 534.539 690.017C534.351 689.43 534.28 688.812 534.331 688.197C534.383 687.583 534.554 686.985 534.837 686.437C535.119 685.889 535.506 685.402 535.977 685.004C536.448 684.606 536.992 684.305 537.579 684.117L538.163 683.976C542.069 683.352 547.022 688.487 548.613 691.628C548.613 691.748 548.935 692.433 549.257 693.279C549.036 691.93 548.814 690.581 548.553 689.252C547.767 685.406 546.882 681.52 545.975 677.614C545.794 676.808 545.633 676.003 545.452 675.177C542.279 675.381 539.095 675.096 536.009 674.332C534.652 673.888 533.409 673.154 532.366 672.18C531.322 671.206 530.504 670.017 529.968 668.694C529.78 668.107 529.71 667.489 529.761 666.875C529.812 666.26 529.984 665.662 530.266 665.114C530.548 664.566 530.936 664.08 531.406 663.682C531.877 663.283 532.421 662.982 533.009 662.794L533.592 662.654C537.499 662.029 542.452 667.164 544.042 670.305C544.042 670.426 544.425 671.251 544.787 672.198C544.324 670.063 543.902 667.949 543.539 665.815C542.916 662.179 542.532 658.507 542.391 654.821C539.127 655.021 535.851 654.743 532.666 653.996C531.308 653.549 530.065 652.811 529.021 651.834C527.978 650.856 527.16 649.663 526.626 648.338C526.438 647.751 526.367 647.132 526.418 646.518C526.47 645.904 526.641 645.306 526.924 644.758C527.206 644.21 527.593 643.723 528.064 643.325C528.535 642.927 529.079 642.626 529.666 642.438L530.23 642.297C534.136 641.673 539.089 646.807 540.7 649.948C540.7 650.19 541.948 653.21 542.311 654.318C542.257 650.69 542.526 647.065 543.116 643.485C543.606 640.288 544.278 637.122 545.13 634.002C545.935 631.102 546.821 628.485 547.647 626.189C548.09 624.961 548.533 623.833 548.935 622.786C548.935 622.786 548.694 618.014 548.714 617.712C548.976 614.189 551.573 607.524 555.419 606.598C556.024 606.472 556.649 606.466 557.257 606.582C557.865 606.698 558.443 606.933 558.96 607.274C559.476 607.614 559.92 608.054 560.266 608.567C560.612 609.08 560.854 609.656 560.976 610.263C560.986 610.417 560.986 610.571 560.976 610.726C560.988 612.148 560.692 613.555 560.108 614.852C559.524 616.148 558.666 617.303 557.593 618.236C555.024 620.141 552.179 621.641 549.157 622.686C548.754 623.773 548.331 624.941 547.888 626.27C547.123 628.565 546.277 631.183 545.553 634.082C545.371 634.867 545.19 635.713 545.009 636.518C545.593 635.21 546.439 633.438 546.539 633.277C548.412 630.277 553.768 625.565 557.613 626.511C558.806 626.841 559.82 627.63 560.431 628.706C561.043 629.782 561.203 631.056 560.875 632.25C560.834 632.421 560.78 632.59 560.714 632.753C560.076 634.028 559.167 635.148 558.05 636.035C556.934 636.922 555.637 637.554 554.251 637.888C551.074 638.371 547.843 638.371 544.667 637.888C544.284 639.7 543.942 641.552 543.68 643.505C543.174 647.052 542.978 650.636 543.096 654.217V654.841C543.277 654.157 544.566 650.412 544.687 650.17C546.217 646.968 551.029 641.713 554.956 642.237C555.564 642.337 556.146 642.556 556.67 642.882C557.194 643.207 557.648 643.632 558.007 644.134C558.366 644.635 558.623 645.202 558.762 645.802C558.902 646.403 558.922 647.025 558.821 647.633C558.831 647.787 558.831 647.942 558.821 648.096C558.321 649.428 557.538 650.636 556.527 651.637C555.515 652.638 554.299 653.408 552.962 653.895C549.789 654.758 546.502 655.125 543.217 654.982C543.441 658.552 543.899 662.103 544.586 665.613C545.069 668.191 545.673 670.808 546.318 673.426C546.579 672.52 547.767 669.056 547.888 668.815C549.398 665.613 554.211 660.358 558.137 660.882C558.744 660.977 559.327 661.192 559.851 661.513C560.375 661.834 560.831 662.255 561.192 662.753C561.553 663.25 561.812 663.814 561.955 664.412C562.097 665.01 562.121 665.631 562.023 666.238L561.902 666.741C561.414 668.077 560.638 669.289 559.629 670.291C558.62 671.294 557.402 672.061 556.063 672.54C552.901 673.389 549.63 673.763 546.358 673.647L547.244 677.191C548.21 681.077 549.257 684.963 550.063 688.809C550.365 690.158 550.606 691.487 550.848 692.836C551.291 691.487 552.117 689.091 552.217 688.809C553.727 685.607 558.56 680.352 562.466 680.876C563.073 680.971 563.656 681.186 564.18 681.507C564.704 681.828 565.16 682.249 565.521 682.747C565.882 683.244 566.141 683.808 566.284 684.406C566.426 685.004 566.45 685.625 566.352 686.232L566.231 686.735C565.743 688.071 564.967 689.283 563.958 690.285C562.949 691.288 561.731 692.055 560.392 692.534C557.345 693.375 554.188 693.748 551.029 693.641C551.432 695.856 551.774 698.051 552.016 700.245C552.016 701.192 552.257 702.158 552.278 703.064C552.298 703.97 552.278 704.897 552.419 705.803V713.696C552.66 712.286 553.063 710.051 553.123 709.85C554.15 706.467 558.097 700.527 562.063 700.447C563.3 700.457 564.483 700.956 565.355 701.835C566.226 702.714 566.714 703.901 566.714 705.138C566.724 705.319 566.724 705.501 566.714 705.682C566.427 707.074 565.838 708.387 564.989 709.528C564.141 710.669 563.053 711.61 561.801 712.286C558.831 713.616 555.673 714.479 552.439 714.843C552.439 716.857 552.439 718.971 552.258 720.884C551.976 726.924 551.533 731.918 551.15 735.401C550.768 738.884 550.486 740.918 550.486 740.918C550.461 741.099 550.401 741.274 550.308 741.432C550.216 741.59 550.093 741.728 549.947 741.838C549.801 741.949 549.635 742.029 549.458 742.075C549.281 742.121 549.096 742.131 548.915 742.106C548.551 742.051 548.223 741.856 548.001 741.563C547.779 741.269 547.681 740.9 547.727 740.535C548.094 738.793 548.363 737.032 548.533 735.26Z" fill="#6D57FC"/>
<path d="M544.364 637.364C544.364 637.364 537.559 635.854 535.102 633.981C533.918 633.194 532.92 632.157 532.18 630.943C531.439 629.729 530.972 628.368 530.814 626.954C530.787 625.711 531.252 624.508 532.108 623.607C532.964 622.705 534.142 622.179 535.384 622.142H535.867C539.794 622.565 543.217 628.827 543.921 632.21C544.002 632.592 544.425 637.384 544.364 637.364Z" fill="#6D57FC"/>
<path opacity="0.3" d="M387.216 417.282C388.422 420.6 390.64 423.455 393.558 425.444C396.475 427.433 399.943 428.455 403.473 428.365C405.296 428.319 407.099 427.974 408.809 427.342C411.942 426.201 414.666 424.156 416.637 421.466C418.607 418.776 419.736 415.563 419.881 412.232C420.025 408.9 419.178 405.601 417.448 402.751C415.717 399.901 413.18 397.628 410.158 396.22C407.135 394.812 403.763 394.331 400.468 394.84C397.172 395.348 394.102 396.822 391.644 399.075C389.186 401.328 387.452 404.26 386.66 407.499C385.868 410.738 386.055 414.139 387.196 417.272L387.216 417.282Z" fill="#FAFAFA"/>
<path opacity="0.4" d="M389.822 401.026L419.574 414.89C419.625 414.634 419.676 414.389 419.717 414.133C419.98 412.495 419.997 410.827 419.768 409.185L394.075 397.212C392.449 398.23 391.011 399.52 389.822 401.026Z" fill="#FAFAFA"/>
<path opacity="0.4" d="M378.225 406.194L415.619 423.606C418.219 421.337 420.259 418.498 421.578 415.31L380.754 396.285C379.162 399.35 378.297 402.74 378.225 406.194Z" fill="#FAFAFA"/>
<path d="M396.407 393.235C400.017 391.927 403.933 391.718 407.662 392.634C411.39 393.55 414.764 395.551 417.356 398.384C419.948 401.216 421.643 404.753 422.226 408.548C422.809 412.343 422.254 416.226 420.632 419.706C419.01 423.186 416.393 426.107 413.111 428.1C409.83 430.094 406.031 431.07 402.195 430.906C398.359 430.742 394.658 429.444 391.558 427.178C388.459 424.911 386.101 421.777 384.782 418.171C383.904 415.771 383.509 413.221 383.618 410.667C383.727 408.114 384.34 405.607 385.419 403.291C386.499 400.974 388.026 398.893 389.911 397.168C391.797 395.442 394.004 394.106 396.407 393.235ZM408.308 425.952C411.156 424.915 413.633 423.056 415.426 420.612C417.22 418.168 418.248 415.247 418.382 412.219C418.516 409.19 417.749 406.19 416.179 403.597C414.608 401.004 412.305 398.934 409.559 397.65C406.813 396.366 403.748 395.924 400.751 396.38C397.754 396.837 394.96 398.171 392.721 400.215C390.482 402.259 388.9 404.921 388.173 407.863C387.446 410.806 387.607 413.899 388.637 416.75C389.324 418.646 390.378 420.387 391.739 421.875C393.1 423.362 394.741 424.567 396.568 425.42C398.395 426.273 400.373 426.757 402.387 426.844C404.401 426.932 406.413 426.622 408.308 425.931V425.952Z" fill="#6D57FC"/>
<path opacity="0.3" d="M396.407 393.235C400.017 391.927 403.933 391.718 407.662 392.634C411.39 393.55 414.764 395.551 417.356 398.384C419.948 401.216 421.643 404.753 422.226 408.548C422.809 412.343 422.254 416.226 420.632 419.706C419.01 423.186 416.393 426.107 413.111 428.1C409.83 430.094 406.031 431.07 402.195 430.906C398.359 430.742 394.658 429.444 391.558 427.178C388.459 424.911 386.101 421.777 384.782 418.171C383.904 415.771 383.509 413.221 383.618 410.667C383.727 408.114 384.34 405.607 385.419 403.291C386.499 400.974 388.026 398.893 389.911 397.168C391.797 395.442 394.004 394.106 396.407 393.235ZM408.308 425.952C411.156 424.915 413.633 423.056 415.426 420.612C417.22 418.168 418.248 415.247 418.382 412.219C418.516 409.19 417.749 406.19 416.179 403.597C414.608 401.004 412.305 398.934 409.559 397.65C406.813 396.366 403.748 395.924 400.751 396.38C397.754 396.837 394.96 398.171 392.721 400.215C390.482 402.259 388.9 404.921 388.173 407.863C387.446 410.806 387.607 413.899 388.637 416.75C389.324 418.646 390.378 420.387 391.739 421.875C393.1 423.362 394.741 424.567 396.568 425.42C398.395 426.273 400.373 426.757 402.387 426.844C404.401 426.932 406.413 426.622 408.308 425.931V425.952Z" fill="#261E58"/>
<path d="M406.176 429.045C407.475 435.319 409.279 441.428 411.151 447.496C412.149 450.517 413.078 453.551 414.158 456.53L415.743 461.027C415.992 461.884 416.435 462.672 417.037 463.331C417.638 463.99 418.384 464.502 419.215 464.826C420.1 465.204 421.095 465.23 421.999 464.9C422.903 464.57 423.647 463.909 424.081 463.05C424.509 462.267 424.752 461.397 424.79 460.506C424.828 459.615 424.66 458.727 424.299 457.911L422.618 453.455C421.525 450.476 420.281 447.551 419.106 444.599C416.645 438.735 414.09 432.913 411.042 427.269C410.751 426.703 410.263 426.264 409.671 426.033C409.079 425.801 408.423 425.794 407.826 426.012C407.229 426.23 406.732 426.658 406.428 427.217C406.124 427.775 406.035 428.426 406.176 429.045Z" fill="#6D57FC"/>
<path opacity="0.3" d="M406.176 429.045C407.475 435.319 409.279 441.428 411.151 447.496C412.149 450.517 413.078 453.551 414.158 456.53L415.743 461.027C415.992 461.884 416.435 462.672 417.037 463.331C417.638 463.99 418.384 464.502 419.215 464.826C420.1 465.204 421.095 465.23 421.999 464.9C422.903 464.57 423.647 463.909 424.081 463.05C424.509 462.267 424.752 461.397 424.79 460.506C424.828 459.615 424.66 458.727 424.299 457.911L422.618 453.455C421.525 450.476 420.281 447.551 419.106 444.599C416.645 438.735 414.09 432.913 411.042 427.269C410.751 426.703 410.263 426.264 409.671 426.033C409.079 425.801 408.423 425.794 407.826 426.012C407.229 426.23 406.732 426.658 406.428 427.217C406.124 427.775 406.035 428.426 406.176 429.045Z" fill="#261E58"/>
<path d="M507.191 423.073C507.437 423.415 507.833 424.016 508.147 424.508L509.172 426.107C509.842 427.187 510.539 428.294 511.086 429.428C512.315 431.645 513.424 433.926 514.407 436.262C516.342 440.794 517.541 445.607 517.961 450.517V451.433V451.624C517.961 451.747 517.715 452.143 517.018 452.54C515.047 453.481 512.921 454.055 510.744 454.234C505.492 454.746 500.205 454.792 494.945 454.371L493.756 460.043C499.389 461.869 505.25 462.894 511.168 463.091C512.762 463.104 514.355 463.017 515.938 462.831C517.737 462.619 519.499 462.16 521.172 461.464C523.368 460.593 525.266 459.108 526.639 457.187C527.383 456.072 527.916 454.831 528.211 453.524C528.438 452.459 528.543 451.373 528.525 450.285C528.543 444.042 527.383 437.852 525.109 432.039C524.06 429.201 522.818 426.438 521.391 423.77C520.68 422.403 519.915 421.146 519.122 419.861C518.726 419.219 518.316 418.576 517.879 417.948C517.441 417.319 517.045 416.731 516.512 415.966L507.191 423.073Z" fill="#FFC1B4"/>
<path d="M511.279 404.062C516.008 405.21 527.188 423.852 527.188 423.852L502.135 434.225C502.135 434.225 497.611 420.039 500.454 414.367C503.406 408.462 504.896 402.49 511.279 404.062Z" fill="#6D57FC"/>
<path opacity="0.2" d="M511.279 404.062C516.008 405.21 527.188 423.852 527.188 423.852L502.135 434.225C502.135 434.225 497.611 420.039 500.454 414.367C503.406 408.462 504.896 402.49 511.279 404.062Z" fill="#261E58"/>
<path d="M493.892 453.783L482.411 452.567L488.794 462.216C488.794 462.216 496.12 461.546 497.992 457.159L493.892 453.783Z" fill="#FFC1B4"/>
<path d="M474.226 457.678L483.041 467.259L488.863 462.216L482.412 452.567L474.226 457.678Z" fill="#FFC1B4"/>
<path d="M508.994 731.873C510.018 731.847 511.035 731.71 512.028 731.463C512.079 731.45 512.123 731.422 512.158 731.383C512.192 731.344 512.213 731.296 512.22 731.244C512.23 731.193 512.224 731.14 512.205 731.092C512.186 731.043 512.153 731.001 512.11 730.971C511.714 730.711 508.27 728.47 506.917 729.071C506.767 729.14 506.637 729.247 506.541 729.381C506.445 729.515 506.386 729.672 506.37 729.837C506.318 730.097 506.332 730.365 506.411 730.618C506.49 730.872 506.631 731.101 506.821 731.285C507.454 731.73 508.223 731.938 508.994 731.873ZM511.249 731.08C509.254 731.477 507.764 731.408 507.149 730.875C507.023 730.755 506.931 730.602 506.883 730.434C506.835 730.266 506.832 730.088 506.876 729.919C506.875 729.843 506.897 729.769 506.938 729.706C506.98 729.643 507.039 729.593 507.108 729.563C507.846 729.263 509.842 730.206 511.249 731.08Z" fill="#6D57FC"/>
<path d="M511.961 731.477C512.032 731.474 512.1 731.444 512.151 731.393C512.201 731.343 512.231 731.275 512.234 731.204C512.234 731.067 512.234 727.773 511.004 726.666C510.854 726.521 510.672 726.412 510.473 726.348C510.274 726.284 510.063 726.267 509.856 726.297C509.639 726.3 509.429 726.377 509.262 726.517C509.095 726.656 508.982 726.849 508.941 727.063C508.681 728.347 510.745 730.821 511.824 731.436C511.865 731.462 511.913 731.477 511.961 731.477ZM510.048 726.83C510.268 726.831 510.48 726.92 510.635 727.076C511.347 728.137 511.71 729.394 511.674 730.671C510.594 729.81 509.31 727.937 509.474 727.172C509.474 727.035 509.569 726.885 509.925 726.844L510.048 726.83Z" fill="#6D57FC"/>
<path d="M456.923 731.873C458.136 731.847 459.344 731.709 460.531 731.463C460.585 731.454 460.634 731.428 460.671 731.389C460.708 731.349 460.731 731.298 460.736 731.244C460.748 731.188 460.742 731.129 460.717 731.077C460.692 731.026 460.651 730.983 460.6 730.957C460.08 730.698 455.543 728.361 454.135 729.126C454.002 729.196 453.889 729.3 453.807 729.427C453.726 729.554 453.679 729.7 453.67 729.85C453.628 730.1 453.65 730.356 453.734 730.595C453.818 730.834 453.96 731.048 454.149 731.217C454.973 731.742 455.951 731.974 456.923 731.873ZM459.657 731.08C457.114 731.504 455.228 731.395 454.531 730.766C454.417 730.656 454.331 730.521 454.278 730.371C454.226 730.222 454.21 730.062 454.231 729.905C454.232 729.842 454.25 729.781 454.284 729.728C454.318 729.675 454.365 729.632 454.422 729.604C455.16 729.194 457.757 730.206 459.629 731.08H459.657Z" fill="#6D57FC"/>
<path d="M460.475 731.477C460.523 731.496 460.577 731.496 460.625 731.477C460.664 731.449 460.696 731.412 460.718 731.369C460.739 731.326 460.75 731.279 460.748 731.231C460.748 731.108 460.488 728.019 459.053 726.83C458.849 726.651 458.61 726.516 458.351 726.433C458.093 726.351 457.82 726.323 457.55 726.352C456.798 726.434 456.579 726.816 456.538 727.131C456.32 728.497 458.971 730.875 460.365 731.504L460.475 731.477ZM457.741 726.83C458.088 726.832 458.422 726.958 458.684 727.185C459.486 728.2 459.963 729.434 460.051 730.725C458.684 729.878 456.839 727.992 456.976 727.158C456.976 727.158 456.976 726.885 457.509 726.844L457.741 726.83Z" fill="#6D57FC"/>
<path d="M491.309 376.372C489.942 383.205 486.826 396.873 491.555 401.451C491.555 401.451 489.655 408.285 477.026 408.285C463.154 408.285 470.439 401.451 470.439 401.451C478.024 399.647 477.874 394.03 476.575 388.754L491.309 376.372Z" fill="#FFC1B4"/>
<path d="M473.062 731.203H461.609L461.022 704.688H472.475L473.062 731.203Z" fill="#FFC1B4"/>
<path d="M525.082 731.203H513.629L510.116 704.688H521.57L525.082 731.203Z" fill="#FFC1B4"/>
<path d="M512.931 729.878H525.792C526.013 729.873 526.227 729.95 526.393 730.093C526.56 730.237 526.667 730.438 526.694 730.657L528.061 740.839C528.084 741.097 528.053 741.357 527.97 741.603C527.887 741.848 527.754 742.074 527.579 742.265C527.404 742.457 527.192 742.61 526.955 742.715C526.718 742.82 526.462 742.874 526.202 742.875C521.72 742.793 519.56 742.534 513.902 742.534C510.43 742.534 505.346 742.889 500.535 742.889C495.724 742.889 495.506 738.133 497.515 737.709C506.494 735.782 507.929 733.117 510.963 730.575C511.517 730.119 512.214 729.872 512.931 729.878Z" fill="#261E58"/>
<path d="M461.227 729.877H474.088C474.309 729.875 474.524 729.953 474.692 730.096C474.86 730.239 474.971 730.438 475.004 730.657L476.371 740.839C476.398 741.097 476.37 741.357 476.289 741.604C476.209 741.85 476.077 742.077 475.903 742.269C475.729 742.461 475.516 742.614 475.279 742.719C475.042 742.823 474.785 742.877 474.526 742.875C470.043 742.793 467.883 742.533 462.225 742.533C458.74 742.533 451.537 742.889 446.74 742.889C441.943 742.889 441.71 738.133 443.706 737.709C452.699 735.782 456.239 733.117 459.287 730.575C459.832 730.122 460.519 729.875 461.227 729.877Z" fill="#261E58"/>
<path d="M461.023 704.702L461.324 718.356H472.777L472.477 704.702H461.023Z" fill="#FB8A72"/>
<path d="M521.569 704.702H510.116L511.933 718.356H523.387L521.569 704.702Z" fill="#FB8A72"/>
<path d="M451.073 404.389C451.073 404.389 445.606 406.317 456.089 473.478H502.558C501.902 454.562 501.956 442.89 511.25 404.061C504.747 402.717 498.156 401.845 491.528 401.451C484.498 400.958 477.442 400.958 470.412 401.451C461.364 402.285 451.073 404.389 451.073 404.389Z" fill="#6D57FC"/>
<path opacity="0.2" d="M451.073 404.389C451.073 404.389 445.606 406.317 456.089 473.478H502.558C501.902 454.562 501.956 442.89 511.25 404.061C504.747 402.717 498.156 401.845 491.528 401.451C484.498 400.958 477.442 400.958 470.412 401.451C461.364 402.285 451.073 404.389 451.073 404.389Z" fill="#261E58"/>
<path d="M447.312 417.127C446.315 422.991 445.016 429.127 443.554 434.977C442.802 437.916 441.955 440.813 441.012 443.628C440.131 446.384 439.058 449.074 437.8 451.679C437.229 452.879 436.576 454.039 435.845 455.15C435.504 455.683 435.148 456.134 434.793 456.599C434.584 456.874 434.351 457.13 434.096 457.364C433.767 457.689 433.328 457.879 432.866 457.897C431.954 457.883 431.057 457.664 430.242 457.255C427.821 456.043 425.593 454.482 423.627 452.622C422.561 451.638 421.481 450.599 420.429 449.533C419.376 448.467 418.338 447.291 417.395 446.239L412.502 449.341C413.248 450.858 414.079 452.332 414.989 453.756C415.872 455.176 416.835 456.545 417.873 457.856C420.04 460.785 422.699 463.314 425.732 465.332C427.619 466.578 429.764 467.381 432.005 467.683C434.721 468.017 437.469 467.415 439.795 465.975C440.838 465.309 441.797 464.519 442.652 463.624C443.319 462.905 443.949 462.152 444.538 461.369C445.634 459.936 446.629 458.429 447.517 456.858C450.646 450.889 453.089 444.584 454.802 438.066C455.677 434.909 456.497 431.752 457.153 428.499C457.809 425.246 458.424 422.171 458.902 418.809L447.312 417.127Z" fill="#FFC1B4"/>
<path d="M451.072 404.39C446.344 405.592 442.872 425.014 442.872 425.014L460.995 437.383C460.995 437.383 468.416 414.257 464.822 409.078C461.118 403.665 457.961 402.64 451.072 404.39Z" fill="#6D57FC"/>
<path opacity="0.2" d="M451.072 404.39C446.344 405.592 442.872 425.014 442.872 425.014L460.995 437.383C460.995 437.383 468.416 414.257 464.822 409.078C461.118 403.665 457.961 402.64 451.072 404.39Z" fill="#261E58"/>
<path d="M413.146 450.23L406.941 441.373L417.724 441.141C417.724 441.141 420.266 446.266 418.544 450.708L413.146 450.23Z" fill="#FFC1B4"/>
<path d="M405.971 436.754L406.299 435.893C406.371 435.706 406.486 435.539 406.635 435.406C406.783 435.272 406.961 435.175 407.155 435.123C407.348 435.071 407.55 435.066 407.746 435.107C407.942 435.148 408.125 435.235 408.281 435.36L411.329 437.793C411.771 438.151 412.315 438.362 412.883 438.396C413.452 438.43 414.017 438.286 414.499 437.984L415.442 436.918C415.535 436.806 415.651 436.716 415.782 436.654C415.913 436.593 416.056 436.561 416.201 436.561C416.346 436.561 416.489 436.593 416.62 436.654C416.751 436.716 416.867 436.806 416.96 436.918L417.192 437.191C417.686 437.793 417.999 438.523 418.094 439.296L418.627 443.752L416.358 441.961L406.928 441.346L406.053 439.46C405.858 439.038 405.75 438.58 405.736 438.115C405.722 437.65 405.802 437.187 405.971 436.754Z" fill="#FFC1B4"/>
<path d="M490.941 359.273C492.813 370.494 493.838 375.196 489.574 382.193C483.15 392.704 468.991 392.635 463.825 382.193C459.164 372.831 456.895 356.061 466.681 349.105C468.821 347.556 471.324 346.584 473.948 346.281C476.572 345.979 479.23 346.356 481.666 347.377C484.103 348.398 486.235 350.029 487.859 352.112C489.484 354.195 490.545 356.661 490.941 359.273Z" fill="#FFC1B4"/>
<path d="M460.968 422.348C450.034 435.77 470.535 452.567 496.079 447.236C532.653 439.583 501.546 423.715 513.697 412.207C525.847 400.699 515.173 393.537 507.779 384.995C500.385 376.453 499.824 376.194 500.371 359.82C500.918 343.447 482.508 339.319 468.717 343.993C458.685 347.41 463.25 362.963 469.086 370.959C474.922 378.954 458.972 383.847 460.025 394.781C461.077 405.715 471.232 409.815 460.968 422.348Z" fill="#261E58"/>
<path d="M477.574 342.271C465.848 341.028 458.016 342.531 457.073 352.262C456.13 361.993 470.549 367.679 470.549 367.679L477.574 342.271Z" fill="#261E58"/>
<path d="M472.638 369.059C472.894 371.25 472.281 373.453 470.93 375.196C469.112 377.479 466.515 376.276 465.6 373.679C464.766 371.342 464.725 367.324 467.226 365.971C467.776 365.687 468.389 365.546 469.008 365.559C469.626 365.573 470.232 365.741 470.77 366.047C471.307 366.354 471.76 366.79 472.086 367.316C472.412 367.842 472.602 368.442 472.638 369.059Z" fill="#FFC1B4"/>
<path d="M468.376 473.492C468.376 473.492 470.946 497.082 474.362 525.633C476.549 543.851 479.078 564.093 481.51 581.519C482.112 585.933 482.727 590.156 483.314 594.134C488.645 629.901 509.187 715.773 509.187 715.773H524.795C524.795 715.773 516.075 632.826 513.478 597.441C506.904 507.933 517.346 494.293 502.544 473.546L468.376 473.492Z" fill="#261E58"/>
<path d="M506.616 715.978H527.363L527.008 708.597L504.908 708.037L506.616 715.978Z" fill="#6D57FC"/>
<path opacity="0.8" d="M506.616 715.978H527.363L527.008 708.597L504.908 708.037L506.616 715.978Z" fill="white"/>
<path opacity="0.4" d="M474.361 525.633C476.548 543.851 479.077 564.093 481.509 581.519C485.145 563.013 493.345 517.282 480.457 509.246C477.355 513.346 475.428 519.072 474.361 525.633Z" fill="#261E58"/>
<path d="M456.089 473.478C456.089 473.478 448.695 559.473 449.256 594.38C449.802 630.694 458.96 715.718 458.96 715.718H474.39C474.39 715.718 476.085 632.812 477.684 597.154C479.433 558.27 490.135 473.478 490.135 473.478H456.089Z" fill="#261E58"/>
<path d="M456.581 715.978H476.945L477.314 708.597L454.873 708.037L456.581 715.978Z" fill="#6D57FC"/>
<path opacity="0.8" d="M456.581 715.978H476.945L477.314 708.597L454.873 708.037L456.581 715.978Z" fill="white"/>
<path d="M503.296 470.758L505.373 474.858C505.524 475.186 505.141 475.514 504.608 475.514H455.843C455.433 475.514 455.077 475.309 455.064 475.05L454.667 470.95C454.667 470.663 455.009 470.417 455.46 470.417H502.544C502.688 470.403 502.833 470.428 502.965 470.488C503.097 470.548 503.211 470.641 503.296 470.758Z" fill="#6D57FC"/>
<path opacity="0.5" d="M503.296 470.758L505.373 474.858C505.524 475.186 505.141 475.514 504.608 475.514H455.843C455.433 475.514 455.077 475.309 455.064 475.05L454.667 470.95C454.667 470.663 455.009 470.417 455.46 470.417H502.544C502.688 470.403 502.833 470.428 502.965 470.488C503.097 470.548 503.211 470.641 503.296 470.758Z" fill="white"/>
<path d="M496.996 475.993H498.253C498.513 475.993 498.704 475.87 498.691 475.706L498.13 470.239C498.13 470.089 497.898 469.952 497.638 469.952H496.381C496.135 469.952 495.944 470.089 495.957 470.239L496.518 475.706C496.477 475.897 496.695 475.993 496.996 475.993Z" fill="#261E58"/>
<path d="M466.381 475.993H467.638C467.884 475.993 468.075 475.87 468.062 475.706L467.515 470.239C467.515 470.089 467.269 469.952 467.023 469.952H465.766C465.506 469.952 465.315 470.089 465.328 470.239L465.889 475.706C465.902 475.897 466.121 475.993 466.381 475.993Z" fill="#261E58"/>
<path d="M217.417 640.125C219.433 638.705 221.605 636.179 221.676 633.51C221.703 632.884 221.598 632.26 221.369 631.678C221.14 631.095 220.792 630.567 220.347 630.127C219.902 629.687 219.369 629.346 218.784 629.124C218.199 628.902 217.574 628.805 216.949 628.839C213.187 629.18 209.851 635.085 209.056 638.365C209.056 638.649 208.488 643.206 208.559 643.191C208.63 643.177 215.032 641.814 217.417 640.125Z" fill="#6D57FC"/>
<path d="M184.922 711.304C184.832 710.797 184.635 710.316 184.345 709.891C184.055 709.466 183.679 709.108 183.24 708.839C182.801 708.571 182.31 708.399 181.8 708.334C181.29 708.27 180.772 708.314 180.28 708.465C177.441 709.444 175.836 714.768 175.879 717.522C175.879 717.692 176.149 719.765 176.305 720.815C175.978 720.006 175.666 719.183 175.34 718.331C174.871 717.096 174.417 715.79 173.92 714.512L173.281 712.482C173.054 711.801 172.912 711.063 172.727 710.438C172.472 709.416 172.259 708.351 172.046 707.286C174.353 706.646 176.547 705.65 178.548 704.334C180.095 702.914 181.671 700.827 181.515 698.655C181.496 698.145 181.37 697.644 181.145 697.186C180.92 696.727 180.601 696.321 180.209 695.994C179.816 695.668 179.359 695.427 178.868 695.289C178.376 695.15 177.861 695.117 177.355 695.191C174.332 695.731 172.003 700.756 171.677 703.482C171.677 703.567 171.677 704.149 171.677 704.901C171.507 703.851 171.322 702.815 171.18 701.75C170.754 698.74 170.428 695.66 170.087 692.579C170.016 691.926 169.931 691.287 169.86 690.649C172.233 689.983 174.492 688.964 176.56 687.625C178.108 686.205 179.683 684.118 179.527 681.946C179.507 681.437 179.379 680.937 179.154 680.48C178.928 680.022 178.609 679.617 178.217 679.291C177.825 678.965 177.369 678.724 176.878 678.585C176.387 678.446 175.873 678.411 175.368 678.483C172.344 679.022 170.016 684.047 169.689 686.773C169.689 686.872 169.689 687.568 169.689 688.335C169.477 686.674 169.249 684.999 168.965 683.352C168.501 680.525 167.852 677.732 167.021 674.99C167.404 674.877 172.188 673.429 173.934 671.91C175.467 670.49 177.057 668.403 176.887 666.231C176.868 665.721 176.742 665.22 176.517 664.762C176.292 664.303 175.973 663.897 175.581 663.571C175.188 663.244 174.731 663.003 174.24 662.865C173.748 662.727 173.233 662.693 172.727 662.768C169.704 663.307 167.376 668.332 167.049 671.058C167.049 671.243 166.964 673.77 166.978 674.664C166.972 674.631 166.972 674.597 166.978 674.565C166.086 671.896 164.96 669.312 163.614 666.842C162.427 664.627 161.109 662.484 159.667 660.425C158.347 658.495 157.027 656.819 155.834 655.343C155.195 654.548 154.585 653.824 154.017 653.171C154.017 653.171 152.995 649.608 152.896 649.381C151.802 646.868 148.211 642.652 145.145 642.964C144.639 643.028 144.152 643.197 143.717 643.462C143.281 643.727 142.907 644.08 142.617 644.5C142.328 644.919 142.13 645.395 142.037 645.896C141.944 646.397 141.958 646.912 142.078 647.408C142.504 649.537 144.605 651.169 146.465 652.064C148.83 652.808 151.297 653.176 153.776 653.157C154.358 653.867 154.968 654.577 155.621 655.457C156.771 656.961 158.063 658.665 159.326 660.61C159.667 661.135 160.008 661.703 160.348 662.242C159.582 661.447 158.517 660.354 158.389 660.269C156.26 658.537 151.135 656.45 148.566 658.126C148.146 658.417 147.792 658.794 147.527 659.231C147.262 659.668 147.091 660.157 147.027 660.664C146.963 661.171 147.006 661.686 147.154 662.176C147.301 662.666 147.55 663.119 147.884 663.506C148.658 664.27 149.587 664.859 150.609 665.234C151.63 665.609 152.719 665.76 153.804 665.678C155.934 665.678 159.965 663.69 160.902 663.264C161.655 664.485 162.322 665.763 163.074 667.14C164.351 669.606 165.405 672.181 166.226 674.834C166.226 674.99 166.226 675.161 166.339 675.317C166.027 674.848 164.139 672.478 163.983 672.293C162.052 670.334 157.183 667.694 154.443 669.085C153.993 669.327 153.599 669.662 153.288 670.067C152.976 670.472 152.753 670.939 152.634 671.436C152.515 671.933 152.502 672.449 152.596 672.952C152.69 673.454 152.889 673.931 153.179 674.352C154.344 676.169 156.899 676.949 158.943 677.106C161.3 677.29 166.183 675.487 166.368 675.416C167.11 678.088 167.679 680.805 168.071 683.551C168.369 685.581 168.596 687.639 168.795 689.726C168.383 689.13 166.609 686.887 166.467 686.745C164.536 684.786 159.667 682.159 156.927 683.536C156.477 683.779 156.084 684.114 155.772 684.519C155.46 684.924 155.238 685.39 155.118 685.887C154.999 686.384 154.986 686.901 155.08 687.403C155.174 687.906 155.373 688.383 155.664 688.803C156.828 690.634 159.383 691.401 161.427 691.557C163.727 691.742 168.412 690.038 168.809 689.896C168.909 690.833 168.994 691.784 169.079 692.735C169.363 695.83 169.619 698.925 169.973 701.977C170.101 703.028 170.257 704.064 170.413 705.1C169.76 704.234 168.525 702.687 168.412 702.559C166.481 700.614 161.612 697.974 158.872 699.365C158.421 699.605 158.027 699.937 157.714 700.341C157.401 700.744 157.176 701.209 157.056 701.705C156.935 702.201 156.921 702.717 157.014 703.219C157.106 703.721 157.304 704.197 157.594 704.618C158.773 706.449 161.328 707.215 163.372 707.372C165.805 707.215 168.2 706.684 170.47 705.796C170.74 707.528 171.038 709.231 171.421 710.892C171.606 711.616 171.748 712.312 171.961 713.022C172.174 713.731 172.344 714.441 172.543 715.066C172.997 716.485 173.409 717.72 173.863 718.998C174.09 719.637 174.317 720.233 174.545 720.858C174.019 719.878 173.125 718.345 173.04 718.217C171.436 716.003 167.021 712.652 164.096 713.604C163.615 713.776 163.176 714.047 162.807 714.4C162.438 714.753 162.148 715.18 161.955 715.653C161.762 716.126 161.671 716.634 161.688 717.144C161.705 717.654 161.829 718.156 162.052 718.615C162.932 720.602 165.345 721.752 167.333 722.221C169.32 722.689 174.275 721.809 174.843 721.695C175.41 723.214 175.978 724.691 176.518 726.068C178.264 730.412 179.868 733.961 181.032 736.431C182.196 738.901 182.92 740.292 182.92 740.292C183.055 740.534 183.279 740.713 183.544 740.793C183.809 740.872 184.094 740.845 184.34 740.718C184.579 740.581 184.756 740.357 184.835 740.093C184.914 739.829 184.889 739.545 184.766 739.298C184.766 739.298 184.042 737.964 182.835 735.536C181.628 733.109 179.996 729.645 178.15 725.386C177.625 724.151 177.086 722.845 176.546 721.497C177.1 721.227 181.43 719.14 182.878 717.408C184.326 715.676 185.405 713.419 184.922 711.304Z" fill="#6D57FC"/>
<path d="M160.902 662.668C160.902 662.668 165.487 659.829 166.807 657.827C167.943 656.11 168.894 653.569 168.227 651.581C168.073 651.095 167.818 650.647 167.479 650.266C167.14 649.884 166.725 649.579 166.261 649.369C165.796 649.158 165.292 649.048 164.782 649.045C164.272 649.043 163.768 649.147 163.301 649.352C160.462 650.658 159.61 656.124 159.965 658.85C159.965 659.077 160.902 662.697 160.902 662.668Z" fill="#6D57FC"/>
<path d="M230.774 640.125C233.145 641.885 239.647 643.191 239.647 643.191C239.647 643.191 239.221 638.649 239.15 638.365C238.398 635.085 235.033 629.18 231.271 628.839C230.646 628.803 230.019 628.898 229.433 629.119C228.847 629.34 228.314 629.682 227.868 630.122C227.422 630.563 227.074 631.092 226.846 631.675C226.618 632.259 226.515 632.884 226.544 633.51C226.572 636.107 228.744 638.563 230.774 640.125Z" fill="#6D57FC"/>
<path d="M257.748 703.084C253.986 703.241 250.309 708.962 249.401 712.212C249.401 712.397 249.003 714.541 248.804 715.903C248.804 715.08 248.804 714.299 248.804 713.462C248.804 711.801 248.719 710.14 248.648 708.365C248.648 707.514 248.535 706.648 248.464 705.767C248.393 704.887 248.265 703.979 248.165 703.084C247.896 700.998 247.527 698.911 247.101 696.796C248.52 696.796 253.716 696.639 256.002 695.589C258.287 694.538 260.899 692.551 261.467 689.91C261.625 689.303 261.653 688.669 261.549 688.051C261.445 687.432 261.21 686.842 260.862 686.321C260.513 685.799 260.058 685.357 259.526 685.024C258.994 684.691 258.398 684.474 257.776 684.388C254.028 683.948 249.528 689.059 248.137 692.139C248.052 692.324 247.3 694.638 246.916 695.915C246.646 694.652 246.391 693.388 246.093 692.125C245.199 688.462 244.176 684.786 243.183 681.109C242.87 679.987 242.586 678.852 242.288 677.73C243.097 677.73 249.003 677.73 251.502 676.509C254 675.289 256.399 673.471 256.967 670.831C257.123 670.224 257.149 669.591 257.044 668.973C256.938 668.355 256.704 667.766 256.356 667.245C256.007 666.724 255.553 666.282 255.022 665.948C254.492 665.615 253.897 665.397 253.276 665.309C249.528 664.883 245.042 669.993 243.651 673.06C243.538 673.287 242.459 676.623 242.232 677.489C241.579 675.005 240.954 672.535 240.443 670.064C239.735 666.745 239.247 663.383 238.981 659.999C239.421 659.999 245.667 659.999 248.251 658.779C250.536 657.728 253.148 655.741 253.73 653.1C253.884 652.492 253.908 651.859 253.801 651.241C253.693 650.623 253.458 650.034 253.108 649.513C252.759 648.993 252.304 648.551 251.772 648.218C251.241 647.884 250.646 647.666 250.025 647.578C246.277 647.152 241.791 652.263 240.4 655.329C240.287 655.57 239.137 659.162 238.981 659.815C238.981 659.63 238.981 659.417 238.981 659.219C238.791 655.813 238.905 652.397 239.321 649.012C239.534 647.138 239.832 645.349 240.173 643.631C241.394 643.759 246.817 644.242 249.301 643.404C251.785 642.567 254.511 640.934 255.363 638.407C255.582 637.821 255.675 637.195 255.636 636.57C255.598 635.945 255.429 635.335 255.14 634.78C254.851 634.224 254.448 633.736 253.959 633.346C253.469 632.956 252.903 632.673 252.297 632.516C248.606 631.678 243.58 636.264 241.862 639.16C241.777 639.316 240.996 641.019 240.443 642.283C240.599 641.502 240.755 640.693 240.925 639.955C241.564 637.115 242.345 634.659 242.998 632.445C243.396 631.196 243.779 630.06 244.148 629.009C245.383 628.513 250.323 626.483 252.112 624.623C253.901 622.763 255.59 620.023 255.178 617.397C255.105 616.774 254.901 616.174 254.579 615.636C254.258 615.097 253.827 614.633 253.314 614.272C252.8 613.912 252.217 613.664 251.601 613.544C250.986 613.425 250.352 613.436 249.741 613.578C246.093 614.53 243.751 620.918 243.552 624.282C243.552 624.566 243.807 629.151 243.864 629.123H243.935C243.566 630.131 243.168 631.21 242.757 632.402C242.033 634.603 241.224 637.101 240.528 639.884C239.742 642.869 239.13 645.898 238.697 648.955C238.201 652.376 238.011 655.835 238.129 659.29V659.417C237.76 658.381 236.624 655.499 236.511 655.301C234.921 652.319 230.094 647.521 226.389 648.203C225.559 648.351 224.795 648.753 224.203 649.352C223.612 648.75 222.847 648.348 222.016 648.203C218.311 647.535 213.499 652.334 211.909 655.301C211.795 655.499 210.645 658.381 210.276 659.417C210.276 659.417 210.276 659.332 210.276 659.29C210.389 655.834 210.194 652.376 209.694 648.955C209.259 645.9 208.652 642.871 207.877 639.884C207.182 637.044 206.372 634.603 205.634 632.402C205.222 631.21 204.839 630.131 204.456 629.123H204.527C204.527 629.123 204.853 624.566 204.839 624.282C204.655 620.918 202.298 614.53 198.65 613.578C198.039 613.436 197.405 613.425 196.79 613.544C196.174 613.664 195.591 613.912 195.077 614.272C194.564 614.633 194.133 615.097 193.812 615.636C193.49 616.174 193.286 616.774 193.213 617.397C192.801 620.023 194.533 622.82 196.279 624.623C198.025 626.426 203.008 628.513 204.243 629.009C204.612 630.06 204.995 631.196 205.407 632.445C206.088 634.659 206.827 637.172 207.465 639.955C207.636 640.693 207.792 641.502 207.962 642.283C207.409 641.019 206.642 639.316 206.543 639.16C204.825 636.32 199.8 631.678 196.123 632.516C195.516 632.671 194.948 632.953 194.457 633.342C193.966 633.732 193.563 634.22 193.273 634.776C192.984 635.332 192.815 635.943 192.778 636.569C192.74 637.194 192.835 637.821 193.056 638.407C193.908 640.934 196.719 642.666 199.104 643.404C201.489 644.142 207.011 643.759 208.246 643.631C208.573 645.349 208.871 647.138 209.084 649.012C209.505 652.397 209.624 655.813 209.439 659.219C209.439 659.417 209.439 659.63 209.368 659.815C209.212 659.162 208.048 655.556 207.948 655.329C206.529 652.263 202.057 647.152 198.309 647.578C197.688 647.666 197.093 647.884 196.563 648.218C196.032 648.551 195.578 648.993 195.229 649.514C194.881 650.035 194.647 650.624 194.541 651.242C194.436 651.86 194.462 652.493 194.618 653.1C195.186 655.698 197.798 657.685 200.084 658.779C202.667 659.971 208.913 659.999 209.354 659.999C209.072 663.392 208.574 666.764 207.863 670.093C207.338 672.563 206.713 675.033 206.06 677.517C205.833 676.651 204.754 673.259 204.64 673.088C203.221 670.022 198.749 664.911 195.001 665.337C194.381 665.425 193.786 665.643 193.255 665.977C192.724 666.31 192.27 666.752 191.922 667.273C191.573 667.795 191.339 668.383 191.234 669.001C191.128 669.619 191.154 670.252 191.31 670.859C191.878 673.457 194.49 675.445 196.776 676.538C199.274 677.688 205.194 677.759 205.989 677.759C205.691 678.88 205.407 680.016 205.095 681.137C204.101 684.814 203.079 688.491 202.256 692.153C201.943 693.417 201.688 694.68 201.418 695.944C201.035 694.666 200.282 692.352 200.197 692.168C198.777 689.087 194.306 683.977 190.558 684.417C189.937 684.505 189.342 684.723 188.812 685.056C188.281 685.39 187.827 685.832 187.478 686.353C187.13 686.874 186.896 687.463 186.79 688.081C186.685 688.699 186.711 689.332 186.867 689.939C187.435 692.537 190.047 694.51 192.332 695.617C194.618 696.725 199.757 696.81 201.233 696.824C200.808 698.939 200.438 701.083 200.169 703.113C200.069 704.007 199.913 704.93 199.871 705.796C199.828 706.662 199.743 707.542 199.686 708.394C199.615 710.168 199.558 711.829 199.544 713.49C199.544 714.328 199.544 715.108 199.544 715.932C199.345 714.512 198.99 712.425 198.934 712.241C198.025 708.99 194.363 703.269 190.586 703.113C189.96 703.108 189.34 703.235 188.766 703.485C188.192 703.735 187.677 704.102 187.254 704.564C186.831 705.026 186.51 705.571 186.311 706.165C186.113 706.758 186.041 707.387 186.1 708.01C186.271 710.679 188.556 713.022 190.657 714.413C192.758 715.804 198.607 716.869 199.53 717.011C199.53 719.012 199.53 720.943 199.53 722.76C199.686 728.509 200.027 733.279 200.311 736.63C200.595 739.98 200.836 741.882 200.836 741.882C200.917 742.203 201.115 742.483 201.391 742.666C201.667 742.85 202.002 742.924 202.329 742.874C202.657 742.825 202.954 742.655 203.164 742.398C203.373 742.141 203.48 741.816 203.462 741.485C203.462 741.485 203.192 739.639 202.838 736.331C202.483 733.024 202.043 728.311 201.759 722.632C201.688 721 201.617 719.254 201.574 717.465C202.511 717.38 208.26 716.798 210.603 715.463C212.945 714.129 215.231 712.014 215.571 709.373C215.672 708.755 215.641 708.122 215.482 707.517C215.322 706.911 215.037 706.345 214.645 705.857C214.253 705.368 213.762 704.968 213.205 704.681C212.648 704.394 212.037 704.227 211.412 704.192C207.636 704.092 203.604 709.572 202.483 712.709C202.412 712.908 201.83 715.407 201.574 716.684C201.574 715.605 201.574 714.541 201.574 713.405C201.574 711.801 201.574 710.083 201.574 708.422C201.574 707.57 201.673 706.704 201.716 705.824C201.759 704.944 201.872 704.092 201.943 703.226C202.085 701.935 202.284 700.628 202.497 699.308C204.186 699.393 208.999 699.535 211.256 698.669C213.513 697.803 216.352 695.958 217.076 693.403C217.271 692.807 217.338 692.177 217.273 691.554C217.208 690.931 217.013 690.329 216.699 689.786C216.386 689.243 215.962 688.773 215.454 688.406C214.947 688.038 214.368 687.782 213.754 687.653C210.049 686.972 205.237 691.784 203.633 694.751L203.008 696.299C203.235 695.021 203.476 693.743 203.76 692.466C204.555 688.817 205.492 685.126 206.415 681.421L206.969 679.107C208.388 679.178 213.612 679.391 215.983 678.483C218.354 677.574 221.079 675.771 221.818 673.216C222.01 672.619 222.075 671.989 222.008 671.366C221.941 670.743 221.744 670.141 221.43 669.598C221.115 669.056 220.69 668.586 220.182 668.219C219.674 667.852 219.095 667.595 218.482 667.467C214.776 666.785 209.964 671.598 208.36 674.565C208.36 674.678 207.991 675.459 207.636 676.353C208.104 674.337 208.544 672.322 208.928 670.306C209.6 666.852 210.037 663.356 210.234 659.843C211.029 659.843 216.948 660.212 219.518 659.219C221.32 658.559 222.93 657.461 224.203 656.025C225.475 657.461 227.085 658.559 228.887 659.219C231.457 660.212 237.405 659.886 238.171 659.843C238.376 663.356 238.812 666.851 239.478 670.306C239.861 672.322 240.301 674.337 240.769 676.353C240.414 675.459 240.102 674.678 240.045 674.565C238.455 671.598 233.643 666.785 229.924 667.467C229.31 667.595 228.731 667.851 228.224 668.219C227.716 668.586 227.292 669.057 226.978 669.599C226.665 670.142 226.469 670.744 226.405 671.367C226.34 671.991 226.407 672.62 226.602 673.216C227.34 675.771 230.08 677.574 232.422 678.483C234.764 679.391 240.045 679.178 241.437 679.107C241.621 679.888 241.806 680.655 242.004 681.421C242.913 685.126 243.85 688.817 244.659 692.466C244.943 693.743 245.17 695.021 245.411 696.299C245.099 695.518 244.829 694.879 244.773 694.751C243.183 691.784 238.37 686.972 234.651 687.653C234.038 687.782 233.458 688.038 232.951 688.406C232.443 688.773 232.019 689.243 231.706 689.786C231.392 690.329 231.197 690.931 231.132 691.554C231.067 692.177 231.134 692.807 231.329 693.403C232.067 695.958 234.807 697.761 237.149 698.669C239.492 699.578 244.247 699.393 245.923 699.308C246.121 700.628 246.334 701.935 246.462 703.226C246.547 704.092 246.675 704.93 246.703 705.824C246.732 706.719 246.788 707.57 246.831 708.422C246.831 710.083 246.831 711.801 246.831 713.405C246.831 714.541 246.831 715.605 246.831 716.684C246.561 715.407 245.979 712.908 245.908 712.709C244.787 709.529 240.755 704.05 236.979 704.192C236.354 704.227 235.743 704.394 235.186 704.681C234.629 704.968 234.138 705.368 233.746 705.857C233.354 706.345 233.069 706.911 232.909 707.517C232.75 708.122 232.719 708.755 232.82 709.373C233.16 712.014 235.659 714.214 237.788 715.463C239.918 716.713 245.88 717.38 246.817 717.465C246.817 719.254 246.717 721 246.632 722.632C246.363 728.311 245.923 733.038 245.568 736.331C245.213 739.625 244.929 741.485 244.929 741.485C244.911 741.816 245.018 742.141 245.227 742.398C245.436 742.655 245.734 742.825 246.062 742.874C246.389 742.924 246.724 742.85 247 742.666C247.276 742.483 247.474 742.203 247.555 741.882C247.555 741.882 247.796 739.966 248.095 736.63C248.393 733.294 248.719 728.509 248.861 722.76C248.861 720.943 248.932 719.012 248.932 717.011C249.855 716.869 255.547 715.918 257.819 714.413C260.09 712.908 262.205 710.679 262.362 708.01C262.427 707.374 262.355 706.731 262.151 706.125C261.946 705.518 261.614 704.963 261.177 704.496C260.74 704.029 260.207 703.662 259.616 703.418C259.024 703.174 258.387 703.061 257.748 703.084Z" fill="#6D57FC"/>
<g filter="url(#filter0_d_141_15528)">
<rect x="211.57" y="355.521" width="5.74427" height="40.0716" rx="2.87214" fill="white"/>
</g>
<g filter="url(#filter1_d_141_15528)">
<rect x="249.314" y="336.462" width="5.74427" height="58.7672" rx="2.87214" fill="white"/>
</g>
<g filter="url(#filter2_d_141_15528)">
<rect x="287.055" y="353.167" width="5.74427" height="42.4266" rx="2.87214" fill="white"/>
</g>
<g filter="url(#filter3_d_141_15528)">
<rect x="305.926" y="331.758" width="5.74427" height="63.4713" rx="2.87214" fill="white"/>
</g>
<g filter="url(#filter4_d_141_15528)">
<rect x="268.186" y="370.711" width="5.74427" height="24.8828" rx="2.87214" fill="white"/>
</g>
<rect x="230.443" y="314.722" width="5.74427" height="80.8718" rx="2.87214" fill="#B0A4FD"/>
<rect x="249.314" y="336.462" width="5.74427" height="59.1315" rx="2.87214" fill="#6D57FC"/>
<rect x="268.186" y="370.711" width="5.74427" height="24.8832" rx="2.87214" fill="#B0A4FD"/>
<rect x="287.055" y="353.167" width="5.74427" height="42.4264" rx="2.87214" fill="#6D57FC"/>
<rect x="305.928" y="331.399" width="5.74427" height="64.1944" rx="2.87214" fill="#B0A4FD"/>
<rect x="211.57" y="355.522" width="5.74427" height="40.0716" rx="2.87214" fill="#6D57FC"/>
<defs>
<filter id="filter0_d_141_15528" x="206.841" y="350.792" width="15.2032" height="49.5309" filterUnits="userSpaceOnUse" color-interpolation-filters="sRGB">
<feFlood flood-opacity="0" result="BackgroundImageFix"/>
<feColorMatrix in="SourceAlpha" type="matrix" values="0 0 0 0 0 0 0 0 0 0 0 0 0 0 0 0 0 0 127 0" result="hardAlpha"/>
<feOffset/>
<feGaussianBlur stdDeviation="2.36478"/>
<feColorMatrix type="matrix" values="0 0 0 0 0.290196 0 0 0 0 0.227451 0 0 0 0 1 0 0 0 0.25 0"/>
<feBlend mode="normal" in2="BackgroundImageFix" result="effect1_dropShadow_141_15528"/>
<feBlend mode="normal" in="SourceGraphic" in2="effect1_dropShadow_141_15528" result="shape"/>
</filter>
<filter id="filter1_d_141_15528" x="244.585" y="331.732" width="15.2032" height="68.2262" filterUnits="userSpaceOnUse" color-interpolation-filters="sRGB">
<feFlood flood-opacity="0" result="BackgroundImageFix"/>
<feColorMatrix in="SourceAlpha" type="matrix" values="0 0 0 0 0 0 0 0 0 0 0 0 0 0 0 0 0 0 127 0" result="hardAlpha"/>
<feOffset/>
<feGaussianBlur stdDeviation="2.36478"/>
<feColorMatrix type="matrix" values="0 0 0 0 0.290196 0 0 0 0 0.227451 0 0 0 0 1 0 0 0 0.25 0"/>
<feBlend mode="normal" in2="BackgroundImageFix" result="effect1_dropShadow_141_15528"/>
<feBlend mode="normal" in="SourceGraphic" in2="effect1_dropShadow_141_15528" result="shape"/>
</filter>
<filter id="filter2_d_141_15528" x="282.325" y="348.437" width="15.2032" height="51.8859" filterUnits="userSpaceOnUse" color-interpolation-filters="sRGB">
<feFlood flood-opacity="0" result="BackgroundImageFix"/>
<feColorMatrix in="SourceAlpha" type="matrix" values="0 0 0 0 0 0 0 0 0 0 0 0 0 0 0 0 0 0 127 0" result="hardAlpha"/>
<feOffset/>
<feGaussianBlur stdDeviation="2.36478"/>
<feColorMatrix type="matrix" values="0 0 0 0 0.290196 0 0 0 0 0.227451 0 0 0 0 1 0 0 0 0.25 0"/>
<feBlend mode="normal" in2="BackgroundImageFix" result="effect1_dropShadow_141_15528"/>
<feBlend mode="normal" in="SourceGraphic" in2="effect1_dropShadow_141_15528" result="shape"/>
</filter>
<filter id="filter3_d_141_15528" x="301.196" y="327.028" width="15.2032" height="72.9303" filterUnits="userSpaceOnUse" color-interpolation-filters="sRGB">
<feFlood flood-opacity="0" result="BackgroundImageFix"/>
<feColorMatrix in="SourceAlpha" type="matrix" values="0 0 0 0 0 0 0 0 0 0 0 0 0 0 0 0 0 0 127 0" result="hardAlpha"/>
<feOffset/>
<feGaussianBlur stdDeviation="2.36478"/>
<feColorMatrix type="matrix" values="0 0 0 0 0.588235 0 0 0 0 0.176471 0 0 0 0 1 0 0 0 0.25 0"/>
<feBlend mode="normal" in2="BackgroundImageFix" result="effect1_dropShadow_141_15528"/>
<feBlend mode="normal" in="SourceGraphic" in2="effect1_dropShadow_141_15528" result="shape"/>
</filter>
<filter id="filter4_d_141_15528" x="261.384" y="363.91" width="19.3467" height="38.4854" filterUnits="userSpaceOnUse" color-interpolation-filters="sRGB">
<feFlood flood-opacity="0" result="BackgroundImageFix"/>
<feColorMatrix in="SourceAlpha" type="matrix" values="0 0 0 0 0 0 0 0 0 0 0 0 0 0 0 0 0 0 127 0" result="hardAlpha"/>
<feOffset/>
<feGaussianBlur stdDeviation="3.40064"/>
<feColorMatrix type="matrix" values="0 0 0 0 0.588235 0 0 0 0 0.176471 0 0 0 0 1 0 0 0 0.25 0"/>
<feBlend mode="normal" in2="BackgroundImageFix" result="effect1_dropShadow_141_15528"/>
<feBlend mode="normal" in="SourceGraphic" in2="effect1_dropShadow_141_15528" result="shape"/>
</filter>
</defs>
</svg>
